<svg xmlns="http://www.w3.org/2000/svg" width="26.766" height="22.426" viewBox="0 0 26.766 22.426">
  <g id="ghost" transform="translate(-210.979 155.851)">
    <path id="Path_8" data-name="Path 8" d="M29.17,17.207h-3a11.1,11.1,0,0,0-22.193-.226c-.125,6.2,5.718,11.593,11.945,11.593h.783c5.491,0,12.85-4.283,14-9.5A1.556,1.556,0,0,0,29.17,17.207Zm-18.548.272a1.49,1.49,0,0,1-2.98,0v-2.4a1.49,1.49,0,0,1,2.98,0Zm5.174,0a1.49,1.49,0,0,1-2.98,0v-2.4a1.49,1.49,0,0,1,2.98,0Z" transform="translate(207 -162)" fill="#fff"/>
  </g>
</svg>
